<?xml version="1.0" encoding="utf-8"?>
<!-- Generator: Adobe Illustrator 22.1.0, SVG Export Plug-In . SVG Version: 6.00 Build 0)  -->
<svg version="1.1" id="Capa_1" xmlns="http://www.w3.org/2000/svg" xmlns:xlink="http://www.w3.org/1999/xlink" x="0px" y="0px"
	 viewBox="0 0 800 200" style="enable-background:new 0 0 800 200;" xml:space="preserve">
<style type="text/css">
	.st0{fill:#FFFFFF;}
	.st1{fill:#7DDE66;}
</style>
<g>
	<g>
		<path class="st0" d="M146.3,51.9L146.3,51.9C140,52,135,57.1,135,63.3v50.3c-0.1,0.5-0.1,0.9-0.1,1.4l0,0c0,0.5,0,1,0.1,1.4v51.3
			c0,6.7,5.9,12.1,12.8,11.3c5.8-0.7,10-5.8,10-11.6v-51.7c0-0.1,0-0.2,0-0.4c0-0.1,0-0.3,0-0.4V63.3
			C157.8,57,152.6,51.9,146.3,51.9z"/>
		<path class="st0" d="M491.3,92.9c-0.1,0-0.2,0-0.3,0c-0.1,0-0.2,0-0.3,0c-23,0-40.3,16.5-40.3,39.3v35.5c0,6.7,5.9,12.1,12.8,11.3
			c5.8-0.7,10-5.8,10-11.6v-36.9c0-10.3,6.8-17.5,17.5-17.5c0.1,0,0.1,0,0.2,0c0.1,0,0.1,0,0.1,0c0,0,0.1,0,0.1,0c0.1,0,0.1,0,0.2,0
			c10.6,0,17.5,7.2,17.5,17.5v36.9c0,5.8,4.2,10.9,10,11.6c6.9,0.8,12.8-4.6,12.8-11.3v-35.5C531.5,109.5,514.2,92.9,491.3,92.9z"/>
		<circle class="st0" cx="567.9" cy="68.8" r="12.9"/>
		<path class="st0" d="M567.9,93.7c-6.3,0-11.4,5.1-11.4,11.4v62.7c0,6.3,5.1,11.4,11.4,11.4c6.3,0,11.4-5.1,11.4-11.4v-62.7
			C579.3,98.8,574.1,93.7,567.9,93.7z"/>
		<path class="st0" d="M645.4,113.4c8.2,0,13.3,3.8,16.3,6.1c2.1,1.5,4,2.3,7,2.3c5.3,0,8.9-3.6,8.9-8.7c0-3.2-1.1-5.5-3.2-7.8
			C669,99.1,658.7,94,645.2,94c-25.8,0-42.6,16.9-44.6,39c-0.3,0.9-0.4,1.9-0.4,2.9c0,0.2,0,0.3,0,0.5c0,24.3,17.3,43.5,44.8,43.5
			c13.5,0,23.7-5.1,29.2-11.2c2.1-2.3,3.2-4.6,3.2-7.8c0-5.1-3.6-8.7-8.9-8.7c-3,0-4.9,0.8-7,2.3c-3,2.3-8.2,6.1-16.3,6.1
			c-13.5,0-21.1-9.8-22.1-21.3c0-0.3,0.1-0.6,0.1-0.9c0-0.4,0.1-0.8,0.1-1.2l0,0c0-0.1,0-0.2,0-0.3
			C623.5,124.4,631,113.4,645.4,113.4z"/>
		<path class="st0" d="M65,92c-24.3,0-44,19.7-44,44s19.7,44,44,44c9.1,0,17.5-2.8,24.6-7.5c1.5,3.7,5.1,6.3,9.4,6.3
			c5.6,0,10.1-4.5,10.1-10.1v-28c0-0.1,0-0.1,0-0.2c0-0.1,0-0.1,0-0.2c0-0.5,0-0.9-0.1-1.4c0.1-1,0.1-1.9,0.1-2.9
			C109.1,111.7,89.3,92,65,92z M65,160c-13.2,0-24-10.7-24-24c0-13.2,10.7-24,24-24s24,10.7,24,24C89,149.3,78.3,160,65,160z"/>
		<path class="st0" d="M251.2,93c-5.8,0.7-10,5.8-10,11.6v36.9c0,10.3-6.8,17.5-17.5,17.5c-0.1,0-0.1,0-0.2,0c-0.1,0-0.1,0-0.1,0
			c0,0-0.1,0-0.1,0c-0.1,0-0.1,0-0.2,0c-10.6,0-17.5-7.2-17.5-17.5v-36.9c0-5.8-4.2-10.9-10-11.6c-6.9-0.8-12.8,4.6-12.8,11.3v35.5
			c0,22.8,17.3,39.3,40.3,39.3c0.1,0,0.2,0,0.3,0c0.1,0,0.2,0,0.3,0c23,0,40.3-16.5,40.3-39.3v-35.5C264,97.6,258.1,92.2,251.2,93z"
			/>
		<path class="st0" d="M386.3,94.4c-0.1,0-0.2,0-0.3,0c-0.1,0-0.2,0-0.3,0c-11.6,0-21.7,4.2-28.9,11.2c-7.2-7.1-17.3-11.2-28.9-11.2
			c-0.1,0-0.2,0-0.3,0c-0.1,0-0.2,0-0.3,0c-23,0-40.3,16.5-40.3,39.3v35.5c0,6.7,5.9,12.1,12.8,11.3c5.8-0.7,10-5.8,10-11.6V132
			c0-10.3,6.8-17.5,17.5-17.5c0.1,0,0.1,0,0.2,0c0.1,0,0.1,0,0.1,0c0,0,0.1,0,0.1,0c0.1,0,0.1,0,0.2,0c10.6,0,17.5,7.2,17.5,17.5
			V169c0,0.4,0,0.8,0.1,1.3c0.3,3.5,2.2,6.6,5,8.5c0.1,0.1,0.2,0.2,0.4,0.2c0.2,0.1,0.3,0.2,0.5,0.3c0.3,0.2,0.6,0.3,0.9,0.5
			c0,0,0,0,0,0c1,0.5,2.1,0.8,3.2,0.9c0.1,0,0.1,0,0.2,0c0.2,0,0.4,0,0.6,0c0.2,0,0.4,0,0.7,0c0.2,0,0.4,0,0.7,0c0.2,0,0.4,0,0.6,0
			c0.1,0,0.1,0,0.2,0c1.1-0.1,2.2-0.4,3.2-0.9c0,0,0,0,0,0c0.3-0.1,0.6-0.3,0.9-0.5c0.2-0.1,0.3-0.2,0.5-0.3
			c0.1-0.1,0.2-0.1,0.4-0.2c2.8-1.9,4.7-4.9,5-8.5c0-0.4,0.1-0.8,0.1-1.3V132c0-10.3,6.8-17.5,17.5-17.5c0.1,0,0.1,0,0.2,0
			c0.1,0,0.1,0,0.1,0c0,0,0.1,0,0.1,0c0.1,0,0.1,0,0.2,0c10.6,0,17.5,7.2,17.5,17.5V169c0,5.8,4.2,10.9,10,11.6
			c6.9,0.8,12.8-4.6,12.8-11.3v-35.5C426.6,111,409.3,94.4,386.3,94.4z"/>
		<path class="st0" d="M779.7,139c0.1-1,0.1-1.9,0.1-2.9c0-24.3-19.7-44-44-44s-44,19.7-44,44s19.7,44,44,44
			c9.1,0,17.5-2.8,24.6-7.5c1.5,3.7,5.1,6.3,9.4,6.3c5.6,0,10.1-4.5,10.1-10.1v-28c0-0.1,0-0.1,0-0.2c0-0.1,0-0.1,0-0.2
			C779.8,139.9,779.8,139.4,779.7,139z M735.8,160c-13.2,0-24-10.7-24-24c0-13.2,10.7-24,24-24s24,10.7,24,24
			C759.8,149.3,749,160,735.8,160z"/>
	</g>
	<path class="st1" d="M208.4,69.9l23.7-41.4c4.2-7.4,13.6-9.9,21-5.7c7.4,4.2,9.9,13.6,5.7,21c-0.7,1.3-1.7,2.5-2.7,3.5l-34.4,33
		c-3.4,3.3-8.8,3.1-12.1-0.3C207,77.3,206.6,73.1,208.4,69.9"/>
</g>
</svg>
